<svg width="204" height="204" viewBox="0 0 204 204" fill="none" xmlns="http://www.w3.org/2000/svg">
<g clipPath="url(#clip0_113_233)">
<path d="M200.814 0H191.25V3.04642C177.935 6.02484 176.021 18.3839 175.27 23.1065C174.913 25.3404 174.189 29.7094 173.291 35.061H6.75796C0.168721 35.061 -0.569083 41.2185 0.291122 44.6253L19.8276 130.874C20.6844 134.28 24.2919 137.062 27.8279 137.062H173.838C177.354 137.062 180.22 139.921 180.22 143.437C180.22 146.952 177.354 149.812 173.838 149.812H14.4658C12.775 149.812 11.1535 150.483 9.95798 151.679C8.76243 152.875 8.09077 154.496 8.09077 156.187C8.09077 157.878 8.76243 159.499 9.95798 160.695C11.1535 161.89 12.775 162.562 14.4658 162.562H22.7279C18.7386 164.764 15.413 167.996 13.0976 171.921C10.7821 175.846 9.56151 180.319 9.56298 184.876H15.938C15.938 195.433 24.5061 204.001 35.0631 204.001C45.6202 204.001 54.1883 195.433 54.1883 184.876H60.5633C60.5641 180.319 59.3428 175.845 57.0268 171.921C54.7107 167.996 51.3846 164.764 47.395 162.562H137.475C133.486 164.764 130.159 167.996 127.843 171.921C125.527 175.845 124.306 180.319 124.307 184.876H130.682C130.776 189.887 132.833 194.661 136.41 198.171C139.987 201.681 144.799 203.647 149.81 203.647C154.822 203.647 159.634 201.681 163.211 198.171C166.788 194.661 168.844 189.887 168.939 184.876H175.314C175.314 180.32 174.093 175.846 171.778 171.922C169.463 167.997 166.138 164.765 162.149 162.562H173.845C178.917 162.559 183.78 160.543 187.366 156.957C190.952 153.371 192.968 148.508 192.97 143.437C192.97 140.925 192.475 138.437 191.513 136.117C190.551 133.796 189.142 131.688 187.365 129.912C185.589 128.136 183.48 126.727 181.159 125.766C178.838 124.805 176.35 124.311 173.838 124.312H171.469L179.622 73.6173C181.893 60.228 186.789 31.304 187.938 24.1096C188.516 20.4749 189.077 17.9215 191.25 16.4901V19.1217H200.814C201.658 19.119 202.466 18.783 203.063 18.1869C203.659 17.5907 203.996 16.7828 204 15.9393V3.18922C203.998 2.34453 203.662 1.53489 203.065 0.937282C202.468 0.339673 201.659 0.00269394 200.814 0ZM35.0631 194.44C32.5274 194.438 30.0962 193.429 28.3032 191.636C26.5101 189.843 25.5016 187.412 25.4989 184.876H44.624C44.6213 187.411 43.6132 189.842 41.8209 191.635C40.0286 193.428 37.5983 194.437 35.0631 194.44ZM149.814 194.44C147.277 194.439 144.845 193.43 143.052 191.637C141.258 189.844 140.249 187.413 140.246 184.876H159.378C159.374 187.411 158.365 189.841 156.572 191.634C154.779 193.427 152.349 194.436 149.814 194.44ZM141.97 50.9799C142.082 50.1158 142.501 49.3207 143.15 48.7391C143.799 48.1576 144.635 47.8283 145.506 47.8111H165.692C167.446 47.8111 168.667 49.2255 168.392 50.9629L166.392 63.7844C166.127 65.5184 164.465 66.9362 162.707 66.9362H143.452C143.047 66.947 142.644 66.8698 142.271 66.7099C141.898 66.5501 141.565 66.3114 141.293 66.0102C141.021 65.7091 140.818 65.3527 140.697 64.9655C140.576 64.5784 140.541 64.1696 140.593 63.7674L141.97 50.9799ZM138.539 82.8551C138.654 81.9918 139.073 81.1979 139.721 80.6167C140.37 80.0356 141.205 79.7056 142.075 79.6863H160.718C162.476 79.6863 163.693 81.1007 163.428 82.8381L161.921 92.4738C161.653 94.2078 159.994 95.6256 158.236 95.6256H140.362C139.957 95.6352 139.554 95.5572 139.182 95.397C138.81 95.2367 138.477 94.998 138.205 94.6972C137.934 94.3963 137.73 94.0404 137.609 93.6537C137.488 93.2671 137.451 92.8588 137.502 92.4568L138.539 82.8551ZM16.5432 63.8422L13.3132 50.9051C12.8916 49.1983 13.9864 47.8111 15.7442 47.8111H39.745C41.5062 47.8111 43.094 49.2357 43.281 50.9799L44.6546 63.7708C44.7056 64.1725 44.6693 64.5805 44.5482 64.9669C44.4271 65.3533 44.2241 65.7091 43.953 66.0099C43.6819 66.3107 43.349 66.5495 42.9773 66.7099C42.6055 66.8704 42.2034 66.9487 41.7986 66.9396H20.511C18.7566 66.9396 16.9682 65.5422 16.5432 63.8422ZM27.6647 95.6256C25.9103 95.6256 24.1219 94.2316 23.7003 92.5316L21.2659 82.7837C20.8409 81.0769 21.9289 79.6897 23.6867 79.6897H43.1654C44.9232 79.6897 46.5144 81.1143 46.7014 82.8585L47.735 92.4602C47.7866 92.862 47.7507 93.2702 47.6298 93.6569C47.5089 94.0436 47.3059 94.3995 47.0347 94.7005C46.7635 95.0014 46.4304 95.2402 46.0584 95.4004C45.6863 95.5607 45.284 95.6387 44.879 95.629L27.6647 95.6256ZM47.9594 124.315H34.8183C33.0537 124.315 31.2755 122.921 30.8505 121.221L28.4161 111.473C27.9945 109.766 29.0825 108.379 30.8437 108.379H46.2458C48.0036 108.379 49.5948 109.804 49.7886 111.548L50.8154 121.15C50.867 121.551 50.8312 121.959 50.7103 122.346C50.5894 122.732 50.3863 123.088 50.1151 123.389C49.8438 123.689 49.5107 123.928 49.1386 124.088C48.7665 124.248 48.3643 124.325 47.9594 124.315ZM87.0325 121.126C87.0289 121.972 86.6908 122.782 86.092 123.379C85.4932 123.977 84.6824 124.313 83.8364 124.315H67.2069C66.3363 124.297 65.501 123.967 64.8528 123.386C64.2046 122.804 63.7864 122.01 63.6743 121.146L62.6407 111.545C62.588 111.143 62.623 110.734 62.7432 110.347C62.8635 109.961 63.0661 109.604 63.3372 109.303C63.6083 109.002 63.9414 108.763 64.3136 108.603C64.6858 108.443 65.0883 108.365 65.4933 108.376H83.8364C84.6829 108.376 85.4948 108.711 86.094 109.309C86.6931 109.907 87.0307 110.718 87.0325 111.565V121.126ZM87.0325 92.4398C87.0289 93.2857 86.6908 94.0958 86.092 94.6933C85.4932 95.2909 84.6824 95.6272 83.8364 95.629H64.1231C62.3687 95.629 60.7843 94.2044 60.5871 92.4602L59.5603 82.8585C59.5082 82.4569 59.5436 82.0487 59.664 81.6621C59.7845 81.2754 59.9872 80.9193 60.2581 80.6183C60.5291 80.3173 60.862 80.0785 61.2339 79.9182C61.6058 79.7579 62.008 79.68 62.4129 79.6897H83.8364C84.6829 79.6897 85.4948 80.0255 86.094 80.6234C86.6931 81.2213 87.0307 82.0325 87.0325 82.8789V92.4398ZM87.0325 63.7504C87.0289 64.5963 86.6908 65.4064 86.092 66.004C85.4932 66.6015 84.6824 66.9378 83.8364 66.9396H61.0495C60.1783 66.9224 59.3422 66.5931 58.6933 66.0116C58.0443 65.4301 57.6257 64.6349 57.5135 63.7708L56.1399 50.9799C56.0883 50.5781 56.1242 50.1699 56.2451 49.7832C56.3659 49.3965 56.5689 49.0406 56.8402 48.7396C57.1114 48.4387 57.4444 48.1999 57.8165 48.0397C58.1886 47.8794 58.5909 47.8014 58.9959 47.8111H83.8398C84.6863 47.8111 85.4982 48.1469 86.0974 48.7448C86.6965 49.3427 87.0341 50.1539 87.0359 51.0003L87.0325 63.7504ZM121.573 121.146C121.46 122.01 121.042 122.805 120.393 123.386C119.744 123.968 118.908 124.297 118.037 124.315H103.009C102.164 124.313 101.353 123.977 100.755 123.379C100.157 122.781 99.8192 121.971 99.8165 121.126V111.562C99.8183 110.716 100.155 109.905 100.754 109.307C101.352 108.709 102.163 108.373 103.009 108.372H119.751C121.505 108.372 122.797 109.797 122.607 111.541L121.573 121.146ZM124.654 92.4568C124.541 93.3206 124.122 94.1154 123.473 94.6968C122.824 95.2782 121.989 95.6077 121.118 95.6256H103.009C102.164 95.6238 101.353 95.2873 100.755 94.6897C100.157 94.0921 99.8192 93.282 99.8165 92.4364V82.8721C99.8183 82.0263 100.155 81.2156 100.754 80.6178C101.352 80.02 102.163 79.6838 103.009 79.6829H122.831C124.589 79.6829 125.878 81.1075 125.684 82.8517L124.654 92.4568ZM127.734 63.7708C127.621 64.6346 127.202 65.4294 126.554 66.0108C125.905 66.5922 125.069 66.9217 124.198 66.9396H103.009C102.164 66.9378 101.353 66.6014 100.755 66.0037C100.157 65.4061 99.8192 64.596 99.8165 63.7504V51.0003C99.8183 50.1545 100.155 49.3438 100.754 48.746C101.352 48.1482 102.163 47.812 103.009 47.8111H126.255C128.013 47.8111 129.302 49.2357 129.115 50.9799L127.734 63.7708ZM152.323 124.315V124.291L152.296 124.315H137.281C137.183 124.315 137.098 124.267 136.999 124.254C136.982 124.138 136.982 124.023 136.962 123.9L136.812 124.213C136.854 124.224 136.896 124.233 136.938 124.24C135.371 124.06 134.249 122.765 134.429 121.146L135.456 111.545C135.57 110.681 135.989 109.887 136.638 109.306C137.286 108.725 138.121 108.395 138.992 108.376H156.25C158.008 108.376 159.218 109.79 158.953 111.527L157.447 121.163C157.185 122.897 155.526 124.315 153.768 124.315H152.323Z" fill="#939395"/>
</g>
<defs>
<clipPath id="clip0_113_233">
<rect width="204" height="204" fill="white"/>
</clipPath>
</defs>
</svg>
