<?xml version="1.0" encoding="utf-8"?>
<!-- Generator: Adobe Illustrator 18.0.0, SVG Export Plug-In . SVG Version: 6.00 Build 0)  -->
<!DOCTYPE svg PUBLIC "-//W3C//DTD SVG 1.1//EN" "http://www.w3.org/Graphics/SVG/1.1/DTD/svg11.dtd">
<svg version="1.1" id="Слой_1" xmlns="http://www.w3.org/2000/svg" xmlns:xlink="http://www.w3.org/1999/xlink" x="0px" y="0px"
	 viewBox="0 0 1920 1080" enable-background="new 0 0 1920 1080" xml:space="preserve">
<path fill="#8D6B61" d="M1427.3,107.6h-117.8c-1.1,0-2.1,0.5-3.1,0.6c-2.3,0.2-4.4,0.6-6.5,1.3c-1.8,0.6-3.4,1.3-5,2.2
	c-1.9,1-3.5,2.1-5.2,3.5c-1.5,1.3-2.8,2.6-4,4.1c-1.3,1.5-2.4,3.1-3.3,4.9c-1,1.8-1.7,3.7-2.3,5.8c-0.3,1.1-1,2-1.3,3.2l-17.8,97.5
	l-762.4,44.6c-2.9-0.2-5.5,0.2-8.8,0.5c-16.9,1.5-29.5,16.4-28.3,33.3c0.1,1.3,0.3,2.5,0.5,3.7l53.1,289.7
	c12.1,44.9,49.6,90.3,105.9,90.3h555.4l-11.9,65H697.3c-59.2,0-107.3,48.2-107.3,107.3c0,59.2,48.2,107.3,107.3,107.3
	c59.2,0,107.3-48.2,107.3-107.3c0-16.1-3.8-31.3-10.2-45h287c-6.4,13.7-10.2,28.9-10.2,45c0,59.2,48.2,107.3,107.3,107.3
	s107.3-48.2,107.3-107.3c0-42.1-24.6-78.2-59.9-95.8l109.7-599.4h91.8c17.2,0,31.2-14,31.2-31.2S1444.5,107.6,1427.3,107.6z
	 M1210.1,508.6l-132,2.1l7.2-76.5l139.2-4.2L1210.1,508.6z M550.6,450.2l131.9-4l8.6,70.5l-128,2L550.6,450.2z M724.2,445l145-4.3
	V514l-136.3,2.1L724.2,445z M869.2,399.1l-150.1,4.5l-9.6-78.3l159.7-9.3V399.1z M910.8,313.5l145-8.5l-8.3,88.7l-136.6,4.1V313.5z
	 M869.2,555.5v74.9H746.9l-8.9-72.9L869.2,555.5z M910.8,554.9l121.7-1.9l-7.3,77.5H910.8V554.9z M910.8,513.3v-73.9l132.7-4
	l-7.1,75.9L910.8,513.3z M1232.2,388.2l-142.9,4.3l8.4-89.9l151.8-8.9L1232.2,388.2z M668,327.7l9.4,77.1l-134.4,4
	c-5.7-30.8-10.2-54.7-14-73L668,327.7z M576,588.8l-5.2-28.6l125.5-2l8.8,72.2h-84C594.4,630.5,579.5,601.6,576,588.8z
	 M1066.9,630.5l7.3-78.2l128.3-2l-14.7,80.2H1066.9z M742.3,865.1c0,24.8-20.2,45-45,45s-45-20.2-45-45s20.2-45,45-45
	S742.3,840.3,742.3,865.1z M1178.4,910.1c-24.8,0-45-20.2-45-45s20.2-45,45-45s45,20.2,45,45S1203.2,910.1,1178.4,910.1z"/>
</svg>
