<svg width="40" height="40" viewBox="0 0 40 40" fill="none" xmlns="http://www.w3.org/2000/svg">
<g clipPath="url(#clip0_73_206)">
<path d="M40.6256 1.25H38.7502V1.84734C36.1395 2.43134 35.7642 4.85469 35.6169 5.78069C35.5469 6.2187 35.4049 7.07537 35.2289 8.12471H2.57533C1.28333 8.12471 1.13866 9.33205 1.30733 10.0001L5.13802 26.9115C5.30602 27.5795 6.01336 28.1248 6.70669 28.1248H35.3362C36.0255 28.1248 36.5876 28.6855 36.5876 29.3748C36.5876 30.0642 36.0255 30.6248 35.3362 30.6248H4.08668C3.75516 30.6248 3.43721 30.7565 3.20279 30.991C2.96837 31.2254 2.83667 31.5433 2.83667 31.8749C2.83667 32.2064 2.96837 32.5243 3.20279 32.7587C3.43721 32.9932 3.75516 33.1249 4.08668 33.1249H5.70669C4.92449 33.5567 4.27241 34.1904 3.81839 34.96C3.36438 35.7295 3.12505 36.6067 3.12534 37.5002H4.37535C4.37535 39.5702 6.05536 41.2502 8.12537 41.2502C10.1954 41.2502 11.8754 39.5702 11.8754 37.5002H13.1254C13.1256 36.6067 12.8861 35.7294 12.432 34.9599C11.9778 34.1904 11.3257 33.5567 10.5434 33.1249H28.2062C27.4239 33.5567 26.7717 34.1904 26.3176 34.9599C25.8635 35.7294 25.624 36.6067 25.6241 37.5002H26.8742C26.8927 38.4827 27.296 39.4187 27.9974 40.107C28.6987 40.7953 29.6422 41.1809 30.6248 41.1809C31.6075 41.1809 32.551 40.7953 33.2523 40.107C33.9537 39.4187 34.357 38.4827 34.3755 37.5002H35.6255C35.6256 36.6068 35.3862 35.7296 34.9322 34.9601C34.4782 34.1906 33.8263 33.5569 33.0442 33.1249H35.3375C36.3319 33.1243 37.2855 32.7291 37.9886 32.0259C38.6918 31.3228 39.087 30.3692 39.0876 29.3748C39.0875 28.8823 38.9904 28.3946 38.8018 27.9396C38.6132 27.4845 38.3369 27.0711 37.9885 26.7229C37.6402 26.3747 37.2267 26.0985 36.7716 25.9101C36.3165 25.7217 35.8288 25.6247 35.3362 25.6248H34.8715L36.4702 15.6848C36.9156 13.0594 37.8756 7.38804 38.1009 5.97736C38.2142 5.26469 38.3242 4.76402 38.7502 4.48335V4.99936H40.6256C40.791 4.99883 40.9495 4.93294 41.0665 4.81605C41.1835 4.69916 41.2495 4.54075 41.2502 4.37535V1.87534C41.2499 1.70971 41.184 1.55096 41.0669 1.43378C40.9499 1.3166 40.7912 1.25053 40.6256 1.25ZM8.12537 39.3756C7.62816 39.375 7.15147 39.1773 6.79989 38.8257C6.4483 38.4741 6.25055 37.9974 6.25002 37.5002H10C9.99952 37.9973 9.80186 38.4739 9.45042 38.8255C9.09899 39.177 8.62246 39.3749 8.12537 39.3756ZM30.6255 39.3756C30.1282 39.3752 29.6513 39.1775 29.2996 38.8259C28.9479 38.4743 28.75 37.9976 28.7495 37.5002H32.5009C32.5 37.9973 32.3021 38.4738 31.9506 38.8253C31.5991 39.1768 31.1226 39.3747 30.6255 39.3756ZM29.0875 11.2461C29.1095 11.0766 29.1916 10.9207 29.3188 10.8067C29.4461 10.6927 29.61 10.6281 29.7808 10.6247H33.7389C34.0829 10.6247 34.3222 10.9021 34.2682 11.2427L33.8762 13.7567C33.8242 14.0967 33.4982 14.3747 33.1535 14.3747H29.3782C29.2987 14.3769 29.2197 14.3617 29.1466 14.3304C29.0735 14.299 29.008 14.2522 28.9548 14.1932C28.9015 14.1341 28.8616 14.0643 28.8379 13.9883C28.8142 13.9124 28.8073 13.8323 28.8175 13.7534L29.0875 11.2461ZM28.4148 17.4961C28.4372 17.3268 28.5194 17.1712 28.6466 17.0572C28.7737 16.9433 28.9375 16.8785 29.1082 16.8748H32.7635C33.1082 16.8748 33.3469 17.1521 33.2949 17.4928L32.9995 19.3821C32.9469 19.7221 32.6215 20.0001 32.2769 20.0001H28.7722C28.6927 20.002 28.6138 19.9867 28.5408 19.9553C28.4679 19.9239 28.4025 19.8771 28.3493 19.8181C28.2961 19.7591 28.2562 19.6893 28.2324 19.6135C28.2086 19.5377 28.2015 19.4576 28.2115 19.3788L28.4148 17.4961ZM4.49401 13.7681L3.86068 11.2314C3.77801 10.8967 3.99268 10.6247 4.33735 10.6247H9.04338C9.38871 10.6247 9.70005 10.9041 9.73671 11.2461L10.006 13.7541C10.016 13.8328 10.0089 13.9128 9.98518 13.9886C9.96144 14.0644 9.92163 14.1341 9.86847 14.1931C9.81531 14.2521 9.75006 14.2989 9.67716 14.3304C9.60426 14.3618 9.52542 14.3772 9.44604 14.3754H5.27202C4.92802 14.3754 4.57735 14.1014 4.49401 13.7681ZM6.67469 20.0001C6.33069 20.0001 5.98002 19.7268 5.89736 19.3934L5.42002 17.4821C5.33669 17.1474 5.55002 16.8754 5.89469 16.8754H9.71405C10.0587 16.8754 10.3707 17.1548 10.4074 17.4968L10.6101 19.3794C10.6202 19.4582 10.6131 19.5383 10.5894 19.6141C10.5657 19.6899 10.5259 19.7597 10.4727 19.8187C10.4196 19.8777 10.3543 19.9245 10.2813 19.956C10.2083 19.9874 10.1295 20.0027 10.05 20.0008L6.67469 20.0001ZM10.6541 25.6255H8.07737C7.73137 25.6255 7.3827 25.3522 7.29937 25.0188L6.82203 23.1075C6.73936 22.7728 6.9527 22.5008 7.29803 22.5008H10.3181C10.6627 22.5008 10.9747 22.7801 11.0127 23.1221L11.2141 25.0048C11.2242 25.0836 11.2171 25.1636 11.1934 25.2394C11.1697 25.3152 11.1299 25.3849 11.0767 25.4439C11.0235 25.5028 10.9582 25.5496 10.8853 25.5809C10.8123 25.6123 10.7334 25.6275 10.6541 25.6255ZM18.3154 25.0001C18.3147 25.166 18.2484 25.3249 18.131 25.442C18.0136 25.5592 17.8546 25.6251 17.6888 25.6255H14.4281C14.2574 25.622 14.0936 25.5573 13.9665 25.4433C13.8394 25.3293 13.7574 25.1735 13.7354 25.0041L13.5327 23.1215C13.5224 23.0427 13.5293 22.9626 13.5528 22.8868C13.5764 22.8109 13.6161 22.741 13.6693 22.682C13.7225 22.6229 13.7878 22.5761 13.8608 22.5447C13.9337 22.5133 14.0127 22.4981 14.0921 22.5001H17.6888C17.8547 22.5001 18.0139 22.566 18.1314 22.6832C18.2489 22.8004 18.3151 22.9595 18.3154 23.1255V25.0001ZM18.3154 19.3754C18.3147 19.5413 18.2484 19.7002 18.131 19.8173C18.0136 19.9345 17.8546 20.0004 17.6888 20.0008H13.8234C13.4794 20.0008 13.1687 19.7214 13.1301 19.3794L12.9287 17.4968C12.9185 17.418 12.9255 17.338 12.9491 17.2622C12.9727 17.1863 13.0124 17.1165 13.0656 17.0575C13.1187 16.9985 13.184 16.9517 13.2569 16.9202C13.3298 16.8888 13.4087 16.8735 13.4881 16.8754H17.6888C17.8547 16.8754 18.0139 16.9413 18.1314 17.0585C18.2489 17.1757 18.3151 17.3348 18.3154 17.5008V19.3754ZM18.3154 13.7501C18.3147 13.9159 18.2484 14.0748 18.131 14.192C18.0136 14.3091 17.8546 14.3751 17.6888 14.3754H13.2207C13.0499 14.372 12.886 14.3075 12.7587 14.1934C12.6315 14.0794 12.5494 13.9235 12.5274 13.7541L12.2581 11.2461C12.248 11.1673 12.255 11.0872 12.2787 11.0114C12.3024 10.9356 12.3422 10.8658 12.3954 10.8068C12.4486 10.7478 12.5139 10.701 12.5868 10.6695C12.6598 10.6381 12.7387 10.6228 12.8181 10.6247H17.6894C17.8554 10.6247 18.0146 10.6906 18.1321 10.8078C18.2496 10.925 18.3158 11.0841 18.3161 11.2501L18.3154 13.7501ZM25.0881 25.0041C25.066 25.1735 24.9839 25.3294 24.8567 25.4434C24.7295 25.5574 24.5656 25.622 24.3948 25.6255H21.4481C21.2823 25.6251 21.1234 25.5592 21.0061 25.442C20.8888 25.3248 20.8226 25.166 20.8221 25.0001V23.1248C20.8225 22.9589 20.8886 22.8 21.0059 22.6828C21.1232 22.5656 21.2823 22.4996 21.4481 22.4995H24.7308C25.0748 22.4995 25.3281 22.7788 25.2908 23.1208L25.0881 25.0041ZM25.6921 19.3788C25.67 19.5482 25.5879 19.704 25.4607 19.818C25.3335 19.932 25.1696 19.9966 24.9988 20.0001H21.4481C21.2823 19.9998 21.1234 19.9338 21.0061 19.8166C20.8888 19.6994 20.8226 19.5406 20.8221 19.3748V17.4994C20.8225 17.3336 20.8886 17.1746 21.0059 17.0574C21.1232 16.9402 21.2823 16.8743 21.4481 16.8741H25.3348C25.6795 16.8741 25.9321 17.1534 25.8941 17.4954L25.6921 19.3788ZM26.2962 13.7541C26.274 13.9235 26.1919 14.0793 26.0647 14.1933C25.9375 14.3073 25.7736 14.3719 25.6028 14.3754H21.4481C21.2823 14.3751 21.1234 14.3091 21.0061 14.1919C20.8888 14.0747 20.8226 13.9159 20.8221 13.7501V11.2501C20.8225 11.0842 20.8886 10.9253 21.0059 10.808C21.1232 10.6908 21.2823 10.6249 21.4481 10.6247H26.0061C26.3508 10.6247 26.6035 10.9041 26.5668 11.2461L26.2962 13.7541ZM31.1175 25.6255V25.6208L31.1122 25.6255H28.1682C28.1488 25.6255 28.1322 25.6162 28.1128 25.6135C28.1095 25.5908 28.1095 25.5682 28.1055 25.5442L28.0762 25.6055C28.0843 25.6077 28.0925 25.6094 28.1008 25.6108C27.7935 25.5755 27.5735 25.3215 27.6088 25.0041L27.8102 23.1215C27.8326 22.9522 27.9148 22.7965 28.0419 22.6826C28.1691 22.5686 28.3328 22.5039 28.5035 22.5001H31.8875C32.2322 22.5001 32.4695 22.7775 32.4175 23.1181L32.1222 25.0075C32.0709 25.3475 31.7455 25.6255 31.4009 25.6255H31.1175Z" fill="white"/>
</g>
<defs>
<clipPath id="clip0_73_206">
<rect width="40" height="40" fill="white"/>
</clipPath>
</defs>
</svg>
