<svg width="12" height="12" viewBox="0 0 12 12" fill="none" xmlns="http://www.w3.org/2000/svg">
<path d="M10 9.30008C11.9 7.10008 11.5 3.80008 9.30003 1.90008C7.10003 7.72476e-05 3.80003 0.400077 2.00003 2.60008C1.20003 3.60008 0.700033 4.80008 0.800033 6.00008C0.800033 7.20008 1.20003 8.40008 2.00003 9.30008C2.00003 9.40008 2.00003 9.40008 2.00003 9.40008L2.10003 9.50008C2.20003 9.60008 2.30003 9.70008 2.40003 9.80008L2.50003 9.90008C2.60003 10.0001 2.70003 10.1001 2.90003 10.2001C4.70003 11.5001 7.10003 11.5001 8.90003 10.2001C9.00003 10.1001 9.20003 10.0001 9.30003 9.90008L9.40003 9.80008C9.50003 9.70008 9.60003 9.60008 9.70003 9.50008C9.90003 9.50008 9.90003 9.50008 10 9.30008C10 9.40008 10 9.40008 10 9.30008ZM6.00003 3.00008C6.90003 3.00008 7.70003 3.80008 7.70003 4.70008C7.70003 5.60008 6.90003 6.40008 6.00003 6.40008C5.10003 6.40008 4.30003 5.60008 4.30003 4.70008C4.30003 3.80008 5.10003 3.00008 6.00003 3.00008ZM3.00003 9.30008C3.00003 8.30008 3.80003 7.50008 4.90003 7.50008H7.20003C8.20003 7.50008 9.10003 8.30008 9.10003 9.30008C7.30003 10.9001 4.70003 10.9001 3.00003 9.30008Z" fill="white"/>
</svg>
